<?xml version="1.0" standalone="no"?>
<!DOCTYPE svg PUBLIC "-//W3C//DTD SVG 20010904//EN"
 "http://www.w3.org/TR/2001/REC-SVG-20010904/DTD/svg10.dtd">
<svg version="1.0" xmlns="http://www.w3.org/2000/svg"
 width="4598.000000pt" height="1276.000000pt" viewBox="0 0 4598.000000 1276.000000"
 preserveAspectRatio="xMidYMid meet">

<g transform="translate(0.000000,1276.000000) scale(0.100000,-0.100000)"
fill="#000000" stroke="none">
<path d="M5429 10067 c-33 -23 -34 -25 -33 -93 1 -93 37 -263 156 -739 109
-436 173 -648 218 -719 37 -57 72 -62 122 -17 32 29 33 31 32 108 -2 89 -36
248 -155 726 -81 323 -156 597 -186 675 -30 80 -90 103 -154 59z"/>
<path d="M7224 9490 c-12 -4 -24 -16 -28 -26 -10 -25 -25 -565 -25 -874 0
-324 14 -653 30 -698 13 -37 41 -52 95 -52 32 0 37 4 54 43 38 85 44 203 44
822 0 695 -5 751 -69 775 -39 15 -80 19 -101 10z"/>
<path d="M6405 9450 c-4 -6 -1 -33 5 -60 16 -65 7 -99 -41 -159 -21 -27 -39
-54 -39 -59 0 -6 34 -27 76 -47 64 -31 81 -44 106 -86 17 -27 34 -49 39 -49 4
0 26 23 49 50 47 56 77 75 135 85 78 14 82 34 24 101 l-42 48 6 83 c2 46 1 86
-4 88 -4 3 -35 -6 -68 -20 -33 -14 -65 -25 -72 -25 -6 0 -41 14 -79 30 -75 33
-86 35 -95 20z"/>
<path d="M4781 9276 c-7 -8 -16 -37 -20 -66 -10 -64 -34 -98 -94 -130 -25 -14
-49 -28 -52 -32 -4 -3 22 -21 56 -39 68 -37 113 -88 129 -150 6 -21 15 -41 21
-44 5 -4 27 9 49 29 42 38 92 56 155 56 55 0 85 10 85 26 0 8 -13 38 -30 67
-35 63 -38 102 -9 156 28 54 22 77 -16 74 -116 -10 -121 -9 -177 30 -59 40
-79 45 -97 23z"/>
<path d="M30238 9129 c-358 -35 -652 -163 -867 -378 -182 -182 -283 -416 -298
-691 -27 -500 225 -885 702 -1073 114 -45 170 -59 615 -152 426 -89 482 -103
621 -151 318 -110 481 -264 551 -523 29 -105 31 -364 5 -461 -62 -224 -233
-415 -458 -511 -94 -40 -265 -83 -394 -100 -146 -18 -474 -16 -620 5 -316 45
-611 142 -891 291 l-101 54 -87 -226 c-47 -125 -85 -227 -83 -228 1 -2 56 -27
122 -58 424 -195 704 -264 1166 -287 327 -17 631 10 853 75 366 106 600 253
778 489 73 96 157 267 192 389 82 284 49 659 -82 922 -99 201 -302 391 -547
513 -195 97 -310 130 -845 242 -212 45 -432 97 -489 116 -298 99 -467 260
-516 491 -74 349 138 680 505 786 134 39 257 50 478 44 370 -10 647 -85 952
-256 58 -33 108 -57 112 -55 3 2 46 75 93 161 48 86 96 171 107 189 l19 33
-48 31 c-145 92 -431 210 -614 255 -261 63 -658 90 -931 64z"/>
<path d="M14430 6885 l0 -2165 1405 0 1405 0 0 215 0 215 -1155 0 -1155 0 2
808 3 807 998 3 997 2 0 210 0 210 -997 2 -998 3 0 715 0 715 1108 3 1107 2 0
210 0 210 -1360 0 -1360 0 0 -2165z"/>
<path d="M33029 8508 l-226 -362 -206 -126 -206 -125 -1 -96 0 -97 33 -6 c17
-3 137 -20 265 -37 l232 -32 0 -896 c0 -520 4 -953 10 -1031 36 -462 202 -759
517 -921 167 -85 347 -122 603 -122 254 -1 453 30 653 100 85 29 259 110 306
142 11 7 -3 44 -74 195 -49 102 -92 186 -97 186 -4 0 -29 -13 -55 -29 -183
-112 -482 -180 -733 -168 -138 7 -208 24 -316 77 -153 75 -259 224 -306 431
-21 92 -22 114 -25 1087 l-4 992 73 0 c40 0 314 -9 608 -20 294 -11 563 -20
597 -20 l61 0 6 38 c3 20 8 115 12 209 l6 173 -678 2 -679 3 -3 395 c-1 217
-6 397 -10 401 -4 4 -36 10 -72 13 l-65 7 -226 -363z"/>
<path d="M4086 8507 c-31 -31 -32 -49 -7 -102 34 -73 153 -207 446 -504 468
-475 604 -591 692 -591 57 0 83 14 83 46 0 68 -110 201 -464 562 -409 416
-609 592 -693 608 -26 5 -37 1 -57 -19z"/>
<path d="M19140 8109 c-281 -20 -513 -66 -773 -155 -153 -53 -277 -103 -277
-112 0 -9 120 -385 124 -389 2 -2 52 15 111 37 359 135 714 200 1097 200 507
0 759 -93 881 -326 60 -116 77 -208 84 -441 l6 -203 -29 0 c-189 -1 -758 -35
-1014 -61 -404 -40 -864 -129 -1145 -221 -66 -22 -73 -27 -123 -93 -29 -38
-72 -108 -96 -155 -82 -160 -114 -288 -123 -485 -21 -479 185 -824 574 -965
298 -108 782 -114 1173 -15 302 76 557 209 780 408 l95 85 13 -96 c48 -354
216 -498 541 -462 56 6 136 21 179 33 l77 22 3 171 2 170 -90 12 c-204 28
-288 92 -337 259 -15 52 -18 156 -23 978 -6 890 -7 923 -28 1011 -86 372 -294
595 -666 713 -243 78 -623 108 -1016 80z m1250 -2132 l0 -384 -57 -55 c-188
-179 -439 -315 -714 -387 -198 -52 -310 -65 -549 -65 -189 0 -225 3 -295 22
-300 82 -450 295 -432 612 8 147 46 252 130 366 l45 62 133 31 c413 99 1076
171 1637 179 l102 2 0 -383z"/>
<path d="M22975 8114 c-491 -41 -823 -182 -1012 -429 -108 -141 -153 -266
-160 -450 -10 -246 55 -429 208 -585 207 -209 517 -327 1042 -395 374 -49 565
-94 723 -170 208 -100 292 -241 282 -467 -3 -86 -8 -103 -41 -171 -126 -256
-531 -383 -1157 -364 -323 10 -552 54 -833 159 -59 22 -109 39 -111 37 -7 -8
-125 -424 -121 -427 2 -2 54 -21 117 -44 194 -68 409 -113 673 -139 157 -15
578 -15 730 0 580 60 972 257 1119 565 61 126 77 196 83 366 6 168 -7 259 -56
385 -86 224 -238 374 -505 500 -198 94 -440 158 -766 205 -580 82 -793 170
-886 363 -76 158 -48 325 75 447 99 99 245 162 456 197 145 24 555 24 720 0
166 -23 334 -63 484 -113 74 -25 137 -42 141 -37 11 13 163 384 159 387 -6 6
-218 72 -299 94 -213 58 -423 82 -755 86 -143 2 -282 2 -310 0z"/>
<path d="M37125 8113 c-82 -7 -258 -45 -345 -73 -318 -104 -580 -297 -746
-549 l-29 -45 -6 55 c-4 30 -13 165 -19 302 l-13 247 -209 0 -208 0 0 -1665 0
-1665 240 0 240 0 0 1128 0 1127 59 78 c276 370 561 564 912 623 75 12 136 15
242 11 161 -6 257 -27 374 -83 83 -40 221 -140 261 -190 15 -19 31 -34 35 -34
11 0 327 291 327 301 0 5 -24 35 -52 67 -198 220 -414 327 -730 361 -92 10
-244 12 -333 4z"/>
<path d="M40020 8109 c-235 -24 -495 -96 -682 -189 -330 -165 -608 -446 -762
-770 -155 -327 -202 -751 -126 -1143 95 -493 421 -920 875 -1146 284 -142 567
-204 935 -204 579 0 1030 177 1380 539 320 333 476 763 457 1264 -12 315 -86
583 -225 814 -239 397 -588 654 -1051 777 -214 56 -568 82 -801 58z m545 -414
c183 -33 375 -110 516 -206 90 -61 248 -217 309 -305 288 -416 309 -1083 48
-1514 -124 -204 -322 -385 -530 -483 -321 -152 -782 -177 -1143 -61 -331 105
-619 362 -757 674 -135 307 -152 728 -42 1065 49 149 137 303 236 412 235 260
500 390 888 437 76 9 388 -3 475 -19z"/>
<path d="M25522 6723 c363 -731 743 -1493 843 -1695 l182 -368 -69 -202 c-79
-234 -119 -321 -183 -404 -90 -115 -223 -200 -360 -229 -87 -18 -275 -18 -375
0 -41 7 -76 12 -78 10 -4 -4 -82 -378 -79 -381 9 -8 157 -47 225 -59 106 -19
201 -19 322 0 338 51 635 260 790 557 28 53 1494 3604 1687 4086 4 10 -50 12
-262 10 l-268 -3 -547 -1405 c-514 -1321 -548 -1405 -570 -1405 -22 0 -82 120
-700 1405 l-676 1405 -271 3 -272 2 661 -1327z"/>
<path d="M43062 6723 c363 -731 743 -1493 843 -1695 l182 -368 -69 -202 c-79
-234 -119 -321 -183 -404 -90 -115 -223 -200 -360 -229 -87 -18 -275 -18 -375
0 -41 7 -76 12 -78 10 -4 -4 -82 -378 -79 -381 9 -8 157 -47 225 -59 106 -19
201 -19 322 0 338 51 635 260 790 557 28 53 1494 3604 1687 4086 4 10 -50 12
-262 10 l-268 -3 -547 -1405 c-514 -1321 -548 -1405 -570 -1405 -22 0 -82 120
-700 1405 l-676 1405 -271 3 -272 2 661 -1327z"/>
<path d="M6173 7867 c-62 -120 -82 -137 -184 -148 -130 -15 -136 -30 -49 -124
32 -35 62 -76 66 -90 4 -15 3 -57 -1 -93 -13 -111 -12 -126 9 -130 10 -2 59
15 108 38 103 49 121 49 199 -5 56 -38 94 -45 101 -17 2 9 0 53 -5 98 -6 44
-7 93 -3 108 4 16 29 51 55 80 95 101 90 123 -29 133 -94 8 -122 31 -175 147
-22 47 -42 85 -45 86 -3 0 -24 -37 -47 -83z"/>
<path d="M7752 7699 c-29 -5 -67 -16 -85 -25 -61 -31 -216 -176 -817 -764
-700 -683 -978 -921 -1218 -1042 -85 -43 -113 -53 -168 -56 l-65 -4 -46 48
c-25 27 -99 130 -166 229 -232 346 -341 469 -483 542 -116 60 -180 76 -285 71
-76 -4 -97 -9 -165 -42 -106 -53 -197 -145 -250 -251 -38 -76 -39 -82 -38
-179 0 -126 9 -150 162 -436 191 -355 244 -479 271 -626 6 -32 18 -162 26
-289 38 -581 104 -881 266 -1195 89 -172 175 -286 339 -450 192 -191 344 -298
561 -391 540 -233 1166 -222 1750 31 283 123 421 232 879 696 360 365 508 541
550 651 28 73 38 218 20 294 -34 149 -138 280 -278 353 -40 20 -80 49 -89 63
-11 16 -19 60 -24 131 -4 59 -15 127 -24 152 -39 111 -121 198 -246 260 -94
48 -103 65 -118 217 -22 233 -94 341 -310 467 -45 27 -81 50 -81 53 0 2 116
122 258 266 455 463 502 528 502 693 0 198 -116 403 -270 477 -106 51 -255 75
-358 56z m218 -255 c117 -61 153 -109 165 -221 6 -52 4 -69 -14 -105 -44 -91
-184 -246 -685 -757 -665 -678 -739 -781 -705 -980 18 -107 68 -191 184 -307
86 -87 109 -104 162 -124 35 -12 68 -29 74 -36 6 -8 15 -51 20 -96 13 -114 41
-202 90 -278 88 -137 216 -226 339 -237 74 -7 85 -20 94 -109 8 -84 37 -158
96 -241 59 -85 110 -130 201 -178 38 -20 69 -39 69 -42 0 -9 -148 -172 -225
-246 -435 -424 -1031 -639 -1603 -576 -116 12 -293 50 -393 84 -86 29 -379
157 -379 166 0 3 30 11 66 18 222 41 405 135 572 295 183 176 257 319 198 385
-43 47 -118 9 -291 -149 -237 -216 -357 -280 -526 -280 -106 0 -169 14 -267
61 -288 138 -480 528 -542 1103 -6 55 -15 203 -20 330 -16 381 -57 512 -287
918 -196 346 -201 463 -25 595 73 55 108 56 211 7 132 -64 291 -248 557 -644
127 -189 168 -261 190 -339 20 -66 15 -110 -25 -256 -17 -60 -34 -140 -38
-177 -6 -65 -5 -67 26 -99 45 -45 90 -37 148 25 85 94 136 280 131 483 -3 127
5 145 76 164 136 36 406 226 754 532 225 198 385 350 837 797 237 234 456 445
487 468 124 94 172 102 278 46z m-384 -1503 c158 -74 222 -199 179 -347 -15
-54 -27 -69 -128 -169 -184 -182 -293 -255 -393 -263 -101 -8 -193 46 -232
135 -61 144 -26 265 124 431 66 73 197 178 269 215 65 34 106 33 181 -2z m464
-696 c49 -25 108 -90 121 -134 27 -89 -35 -198 -215 -377 -186 -185 -268 -228
-369 -195 -49 16 -111 88 -153 174 -50 104 -47 120 34 213 76 89 232 229 306
277 104 66 201 81 276 42z m336 -575 c52 -26 139 -116 164 -172 52 -114 3
-243 -151 -397 -75 -75 -170 -131 -222 -131 -82 0 -194 77 -238 161 -58 114 8
258 203 445 121 116 164 132 244 94z"/>
</g>
</svg>
