<svg width="397" height="112" viewBox="0 0 397 112" fill="none" xmlns="http://www.w3.org/2000/svg">
<path fill-rule="evenodd" clip-rule="evenodd" d="M38.7952 1.0685L88.0356 9.7509C101.577 12.1385 110.702 25.1712 108.315 38.7123L99.6322 87.9526C97.2445 101.494 84.2119 110.619 70.6708 108.232L21.4304 99.5492C7.88931 97.1616 -1.2362 84.129 1.1514 70.5878L9.8338 21.3475C12.2215 7.8063 25.2541 -1.3192 38.7952 1.0685V1.0685ZM32.7319 9.889L76.7345 10.3461C89.3837 10.4775 99.7331 20.9356 99.7331 33.5862V77.5838C99.7331 90.2345 89.3837 100.477 76.7345 100.346L32.7319 99.889C20.0825 99.7576 9.7331 89.2996 9.7331 76.6489V32.6513C9.7331 20.0007 20.0825 9.7576 32.7319 9.889V9.889Z" fill="#8FF739"/>
<path fill-rule="evenodd" clip-rule="evenodd" d="M46.4229 23.6358C46.1715 23.9186 46.5172 25.7727 47.6799 30.3608C49.2827 36.8344 49.6912 37.6515 50.6968 36.6145C51.1053 36.206 50.9796 35.4203 49.6597 30.078C48.8427 26.7469 48.0257 23.8243 47.8371 23.6044C47.46 23.1016 46.8314 23.1329 46.4229 23.6358V23.6358Z" fill="#FEFEFE"/>
<path fill-rule="evenodd" clip-rule="evenodd" d="M61.6644 28.4753C61.5387 28.5696 61.4444 31.6807 61.4444 35.3575C61.4444 41.2027 61.5073 42.0512 61.9472 42.2083C63.2042 42.6797 63.3299 41.9884 63.3299 35.169C63.3299 29.5124 63.267 28.601 62.8272 28.444C62.1986 28.1926 61.9158 28.1926 61.6644 28.4754V28.4753V28.4753Z" fill="#FEFEFE"/>
<path fill-rule="evenodd" clip-rule="evenodd" d="M55.0022 29.2296C55.1278 29.6381 55.0336 30.0781 54.6879 30.4552C54.1537 31.0523 54.1537 31.0837 54.9078 31.3665C55.3478 31.5237 55.7878 31.9007 55.9134 32.215C56.102 32.7178 56.1648 32.6864 56.6048 32.0893C56.8562 31.7123 57.359 31.398 57.7047 31.398C58.396 31.398 58.4903 30.9895 57.8618 30.4866C57.6104 30.298 57.5161 29.7952 57.6104 29.3238C57.7361 28.5696 57.7047 28.5382 57.0762 28.8524C56.6048 29.1038 56.2277 29.1353 55.8192 28.8839C54.9393 28.4125 54.7821 28.4753 55.0022 29.2296Z" fill="#FEFEFE"/>
<path fill-rule="evenodd" clip-rule="evenodd" d="M41.2377 30.0466C41.112 30.1409 41.0178 30.4866 41.0178 30.8009C41.0178 31.1151 40.7035 31.5237 40.3579 31.7436L39.698 32.0893L40.4208 32.4664C40.8293 32.655 41.2378 33.1578 41.3322 33.5663C41.4893 34.2262 41.5521 34.2576 41.9293 33.7862C42.1492 33.5034 42.7778 33.2834 43.2492 33.2834C44.1291 33.2834 44.1605 33.252 43.7206 32.5607C43.4063 32.0892 43.3435 31.7122 43.532 31.3979C44.0034 30.6436 43.9091 30.3923 43.1863 30.6123C42.7778 30.738 42.3378 30.6437 41.9921 30.3295C41.6778 30.0466 41.3322 29.9209 41.2378 30.0466H41.2377V30.0466Z" fill="#FEFEFE"/>
<path fill-rule="evenodd" clip-rule="evenodd" d="M35.2669 36.646C34.7012 37.2116 35.3925 38.123 39.5093 42.3025C42.7147 45.5079 44.1917 46.7964 44.6945 46.7964C46.4544 46.7964 45.8573 45.8536 41.1434 41.1083C36.8695 36.803 35.8325 36.0489 35.2669 36.646V36.646Z" fill="#FEFEFE"/>
<path fill-rule="evenodd" clip-rule="evenodd" d="M52.8338 42.334C52.4252 43.1196 52.111 43.3396 51.3882 43.3396C50.2883 43.3396 50.194 43.6539 51.1053 44.4709C51.6081 44.9109 51.7024 45.288 51.5453 46.0737C51.3254 47.2364 51.3882 47.2992 52.6137 46.6393C53.3993 46.2622 53.5879 46.2622 54.0908 46.6393C55.0022 47.3307 55.2535 47.205 55.0335 46.0737C54.8764 45.2566 54.9706 44.8795 55.4735 44.4396C56.322 43.654 56.2591 43.3397 55.2221 43.3397C54.5307 43.3397 54.2165 43.1198 53.8394 42.3341L53.368 41.297L52.8338 42.3341V42.334V42.334Z" fill="#FEFEFE"/>
<path fill-rule="evenodd" clip-rule="evenodd" d="M65.4983 43.7481C65.0583 43.9995 62.1672 46.7336 59.0561 49.8132C51.7025 57.1668 47.9943 59.9951 46.423 59.4294C46.1716 59.3666 45.3859 58.361 44.6318 57.1668C42.7462 54.2443 41.5835 52.9558 40.1065 52.3273C38.441 51.573 36.8382 51.8559 35.5183 53.1758C34.0727 54.6213 33.8528 56.224 34.827 58.0781C38.158 64.3003 37.9696 63.7976 38.2209 68.1028C38.598 74.4508 40.0751 78.2532 43.469 81.5529C48.8428 86.8638 57.8619 87.5553 65.0898 83.2185C67.0067 82.0557 73.7633 75.205 74.7375 73.4451C75.8688 71.3082 74.9888 68.5428 72.8519 67.5372C71.9405 67.1286 71.8148 66.9086 71.8148 65.7773C71.8148 64.2689 70.9349 62.949 69.5207 62.3519C68.7037 62.0062 68.6094 61.7862 68.5466 60.5607C68.4837 58.8637 67.761 57.6695 66.2839 56.7896L65.184 56.1297L68.2952 52.9557C70.7464 50.4732 71.4692 49.5303 71.6262 48.619C71.9091 47.1106 71.092 45.0994 69.8664 44.2509C68.7036 43.4024 66.5981 43.151 65.4982 43.7481H65.4983V43.7481ZM68.3266 45.6965C69.3008 46.1993 69.6151 46.7336 69.6151 47.9906C69.6151 48.6191 68.3581 50.0646 63.8328 54.6528C57.7677 60.7808 57.2648 61.5036 57.7991 63.6091C58.0819 64.6775 59.7789 66.5631 60.6903 66.7831C61.2874 66.9402 61.4445 67.1916 61.4445 67.9144C61.4445 69.9885 63.3929 72.2511 65.1842 72.2511C65.687 72.2511 65.8441 72.4397 65.8441 73.1625C65.8441 74.2938 67.0383 76.0537 68.1382 76.5879L69.0181 77.0278L67.9811 78.1906C62.9216 83.8786 55.0966 85.7013 48.56 82.6844L46.8316 81.8988L48.0258 81.6475C49.8799 81.2075 51.4827 80.2648 52.8968 78.7249C54.2481 77.2479 54.5624 76.148 53.7453 75.8024C53.431 75.7081 52.614 76.2423 51.4198 77.3737C49.22 79.4792 47.743 80.0134 45.7317 79.4792C42.1806 78.5364 40.1066 73.7283 40.0751 66.5004C40.0437 64.1121 39.3523 62.0381 37.5926 59.1154C36.0213 56.5071 35.9585 55.2501 37.3097 54.2444C38.1582 53.6159 38.2211 53.6159 39.2581 54.1188C40.3265 54.6215 41.3636 55.7843 43.7205 59.2097C45.7003 62.1009 45.9202 62.6665 45.4489 64.1749C44.789 66.3433 44.8518 67.0661 45.6689 67.1604C46.643 67.3175 47.7116 64.9606 47.5858 62.8865C47.4915 61.5352 47.5229 61.4409 48.4028 61.1895C50.1312 60.7495 54.9079 56.7899 60.5017 51.1962C66.8497 44.7854 66.7554 44.8797 68.3267 45.6968L68.3266 45.6965V45.6965ZM65.7183 58.8323C66.3468 59.3666 66.5667 59.8694 66.5667 60.6236C66.5667 61.5349 66.2839 61.9748 64.7441 63.3576C62.89 65.0231 62.01 65.3374 60.8159 64.7089C59.936 64.2375 59.5589 62.792 60.0303 61.692C60.5645 60.3721 63.1414 58.1095 64.0842 58.1095C64.5241 58.1095 65.2469 58.4552 65.7183 58.8323ZM69.3636 64.6147C70.4007 65.5574 70.0864 66.626 68.1066 68.5743C66.3467 70.3027 65.8125 70.5856 64.7441 70.1771C64.2099 69.9571 63.3299 68.4801 63.3299 67.7887C63.3299 67.5688 64.147 66.6574 65.1211 65.746C67.0381 63.9548 68.2637 63.6091 69.3636 64.6147V64.6147ZM72.6948 69.957C73.7004 71.0569 73.4176 72.3454 71.9092 73.8852C70.5579 75.2679 69.5523 75.425 68.4523 74.388C67.2895 73.2881 67.5096 72.1568 69.2065 70.3341C70.8093 68.6057 71.4063 68.5429 72.6948 69.957V69.957Z" fill="#FEFEFE"/>
</svg>
