<?xml version="1.0" encoding="UTF-8"?>
<!DOCTYPE svg PUBLIC "-//W3C//DTD SVG 1.1//EN" "http://www.w3.org/Graphics/SVG/1.1/DTD/svg11.dtd">
<!-- Creator: CorelDRAW 2018 (64-Bit) -->
<svg xmlns="http://www.w3.org/2000/svg" xml:space="preserve" width="1000mm" height="500mm" version="1.1" style="shape-rendering:geometricPrecision; text-rendering:geometricPrecision; image-rendering:optimizeQuality; fill-rule:evenodd; clip-rule:evenodd"
viewBox="0 0 100000 50000"
 xmlns:xlink="http://www.w3.org/1999/xlink">
 <defs>
  <style type="text/css">
   <![CDATA[
    .str0 {stroke:#373435;stroke-width:50;stroke-miterlimit:22.9256}
    .str1 {stroke:#606062;stroke-width:7.62;stroke-miterlimit:22.9256}
    .fil3 {fill:none}
    .fil2 {fill:#373435}
    .fil1 {fill:black}
    .fil0 {fill:#8FF739}
   ]]>
  </style>
   <clipPath id="id0">
    <rect x="14405.64" y="34414.43" width="15370.36" height="6534.38"/>
   </clipPath>
 </defs>
 <g id="Слой_x0020_1">
  <metadata id="CorelCorpID_0Corel-Layer"/>
  <g>
   <path class="fil0" d="M8406.21 19641.84l4924.04 868.24c1354.11,238.76 2266.67,1542.03 2027.9,2896.14l-868.24 4924.03c-238.77,1354.12 -1542.03,2266.67 -2896.14,2027.9l-4924.04 -868.24c-1354.11,-238.76 -2266.66,-1542.02 -2027.9,-2896.14l868.24 -4924.03c238.77,-1354.12 1542.03,-2266.67 2896.14,-2027.9zm4666.23 2344.8l-4924.04 -868.24c-275.79,-48.63 -543.67,18.07 -753.04,164.67 -207.72,145.44 -360.69,371.99 -408.73,644.48l-868.24 4924.03c-48.62,275.79 18.06,543.67 164.67,753.05 145.44,207.72 371.99,360.68 644.48,408.72l4924.04 868.24c275.79,48.63 543.67,-18.07 753.04,-164.67 207.72,-145.44 360.69,-371.99 408.73,-644.48l844.8 -4791.1 0 -0.02 23.44 -132.93c48.63,-275.77 -18.06,-543.65 -164.67,-753.03 -145.34,-207.57 -371.68,-360.47 -643.92,-408.62l-0.56 -0.1z"/>
  </g>
  <g style="clip-path:url(#id0)">
   <image x="14405.64" y="34414.43" width="15370.36" height="6534.38" xlink:href="лого 1_Images\лого 1_ImgID1.png"/>
  </g>
  <g>
   <g id="_433910827488">
    <path class="fil1" d="M28959.86 27967.78c-25.14,28.28 9.43,213.69 125.7,672.5 160.28,647.36 201.13,729.07 301.69,625.37 40.85,-40.85 28.28,-119.42 -103.71,-653.65 -81.7,-333.11 -163.4,-625.37 -182.26,-647.36 -37.71,-50.28 -100.57,-47.15 -141.42,3.14z"/>
    <path class="fil1" d="M30484.01 28451.73c-12.57,9.43 -22,320.54 -22,688.22 0,584.52 6.29,669.37 50.28,685.08 125.7,47.14 138.27,-21.99 138.27,-703.93 0,-565.66 -6.29,-656.8 -50.27,-672.5 -62.86,-25.14 -91.14,-25.14 -116.28,3.14l0 -0.01z"/>
    <path class="fil1" d="M29817.79 28527.16c12.56,40.85 3.14,84.85 -31.43,122.56 -53.42,59.71 -53.42,62.85 21.99,91.13 44,15.72 88,53.42 100.56,84.85 18.86,50.28 25.14,47.14 69.14,-12.57 25.14,-37.7 75.42,-69.13 109.99,-69.13 69.13,0 78.56,-40.85 15.71,-91.14 -25.14,-18.86 -34.57,-69.14 -25.14,-116.28 12.57,-75.42 9.43,-78.56 -53.42,-47.14 -47.14,25.14 -84.85,28.29 -125.7,3.15 -87.99,-47.14 -103.71,-40.86 -81.7,34.57z"/>
    <path class="fil1" d="M28441.34 28608.86c-12.57,9.43 -21.99,44 -21.99,75.43 0,31.42 -31.43,72.28 -65.99,94.27l-65.99 34.57 72.28 37.71c40.85,18.86 81.7,69.14 91.14,109.99 15.71,65.99 21.99,69.13 59.71,21.99 21.99,-28.28 84.85,-50.28 131.99,-50.28 87.99,0 91.13,-3.14 47.14,-72.27 -31.43,-47.15 -37.71,-84.85 -18.86,-116.28 47.14,-75.43 37.71,-100.56 -34.57,-78.56 -40.85,12.57 -84.85,3.14 -119.42,-28.28 -31.43,-28.29 -65.99,-40.86 -75.43,-28.29l-0.01 0z"/>
    <path class="fil1" d="M27844.26 29268.8c-56.57,56.56 12.56,147.7 424.24,565.65 320.54,320.54 468.24,449.39 518.52,449.39 175.99,0 116.28,-94.28 -355.11,-568.81 -427.39,-430.53 -531.09,-505.94 -587.65,-446.23z"/>
    <path class="fil1" d="M29600.95 29837.6c-40.86,78.56 -72.28,100.56 -144.56,100.56 -109.99,0 -119.42,31.43 -28.29,113.13 50.28,44 59.71,81.71 44,160.28 -21.99,116.27 -15.71,122.55 106.84,56.56 78.56,-37.71 97.42,-37.71 147.71,0 91.14,69.14 116.27,56.57 94.27,-56.56 -15.71,-81.71 -6.29,-119.42 44,-163.41 84.85,-78.56 78.56,-109.99 -25.14,-109.99 -69.14,0 -100.56,-21.99 -138.27,-100.56l-47.14 -103.71 -53.42 103.71 0 -0.01z"/>
    <path class="fil1" d="M30867.4 29979.01c-44,25.14 -333.11,298.55 -644.22,606.51 -735.36,735.36 -1106.18,1018.19 -1263.31,961.62 -25.14,-6.28 -103.71,-106.84 -179.12,-226.26 -188.56,-292.25 -304.83,-421.1 -452.53,-483.95 -166.55,-75.43 -326.83,-47.14 -458.82,84.85 -144.56,144.55 -166.55,304.82 -69.13,490.23 333.1,622.22 314.26,571.95 339.39,1002.47 37.71,634.8 185.42,1015.04 524.81,1345.01 537.38,531.09 1439.29,600.24 2162.08,166.56 191.69,-116.28 867.35,-801.35 964.77,-977.34 113.13,-213.69 25.13,-490.23 -188.56,-590.79 -91.14,-40.86 -103.71,-62.86 -103.71,-175.99 0,-150.84 -87.99,-282.83 -229.41,-342.54 -81.7,-34.57 -91.13,-56.57 -97.41,-179.12 -6.29,-169.7 -78.56,-289.12 -226.27,-377.11l-109.99 -65.99 311.12 -317.4c245.12,-248.25 317.4,-342.54 333.1,-433.67 28.29,-150.84 -53.42,-351.96 -175.98,-436.81 -116.28,-84.85 -326.83,-109.99 -436.82,-50.28l0.01 0zm282.83 194.84c97.42,50.28 128.85,103.71 128.85,229.41 0,62.85 -125.7,207.4 -578.23,666.22 -606.51,612.8 -656.8,685.08 -603.37,895.63 28.28,106.84 197.98,295.4 289.12,317.4 59.71,15.71 75.42,40.85 75.42,113.13 0,207.41 194.84,433.67 373.97,433.67 50.28,0 65.99,18.86 65.99,91.14 0,113.13 119.42,289.12 229.41,342.54l87.99 43.99 -103.7 116.28c-505.95,568.8 -1288.45,751.07 -1942.11,449.38l-172.84 -78.56 119.42 -25.13c185.41,-44 345.69,-138.27 487.1,-292.26 135.13,-147.7 166.56,-257.69 84.85,-292.25 -31.43,-9.43 -113.13,43.99 -232.55,157.13 -219.98,210.55 -367.68,263.97 -568.81,210.55 -355.11,-94.28 -562.51,-575.09 -565.66,-1297.88 -3.14,-238.83 -72.28,-446.23 -248.25,-738.5 -157.13,-260.83 -163.41,-386.53 -28.29,-487.1 84.85,-62.85 91.14,-62.85 194.84,-12.56 106.84,50.27 210.55,166.55 446.24,509.09 197.98,289.12 219.97,345.68 172.84,496.52 -65.99,216.84 -59.71,289.12 22,298.55 97.41,15.71 204.27,-219.98 191.69,-427.39 -9.43,-135.13 -6.29,-144.56 81.7,-169.7 172.84,-44 650.51,-439.96 1209.89,-999.33 634.8,-641.08 625.37,-631.65 782.5,-549.94l-0.01 -0.03zm-260.83 1313.58c62.85,53.43 84.84,103.71 84.84,179.13 0,91.13 -28.28,135.12 -182.26,273.4 -185.41,166.55 -273.41,197.98 -392.82,135.13 -87.99,-47.14 -125.7,-191.69 -78.56,-301.69 53.42,-131.99 311.11,-358.25 405.39,-358.25 43.99,0 116.27,34.57 163.41,72.28l0 0zm364.53 578.24c103.71,94.27 72.28,201.13 -125.7,395.96 -175.99,172.84 -229.41,201.13 -336.25,160.28 -53.42,-22 -141.42,-169.7 -141.42,-238.84 0,-21.99 81.71,-113.13 179.12,-204.27 191.7,-179.12 314.26,-213.69 424.25,-113.13zm333.12 534.23c100.56,109.99 72.28,238.84 -78.56,392.82 -135.13,138.27 -235.69,153.98 -345.69,50.28 -116.28,-109.99 -94.27,-223.12 75.42,-405.39 160.28,-172.84 219.98,-179.12 348.83,-37.71z"/>
   </g>
  </g>
  <rect class="fil2 str0" transform="matrix(1.43526 0.0149094 -0 1.60452 5500 20500)" width="6270.63" height="5609.17" rx="1433.53" ry="1433.53"/>
  <rect class="fil3 str1" x="18563.27" y="23936.31" width="1984.37" height="4524.38"/>
 </g>
</svg>
